HIERARCHY
ROOT Hips
{
	OFFSET -3.958830 18.904000 13.208200
	CHANNELS 6 Xposition Yposition Zposition Zrotation Yrotation Xrotation 
	JOINT LHipJoint
	{
		OFFSET 0.000000 0.000000 0.000000
		CHANNELS 3 Zrotation Yrotation Xrotation
		JOINT LeftUpLeg
		{
			OFFSET 1.800000 -1.400000 0.085000
			CHANNELS 3 Zrotation Yrotation Xrotation
			JOINT LeftLeg
			{
				OFFSET 2.215000 -6.000000 0.000000
				CHANNELS 3 Zrotation Yrotation Xrotation
				JOINT LeftFoot
				{
					OFFSET 2.500000 -6.900000 0.000000
					CHANNELS 3 Zrotation Yrotation Xrotation
					JOINT LeftToeBase
					{
						OFFSET 0.200000 -0.500000 1.950000
						CHANNELS 3 Zrotation Yrotation Xrotation
						End Site
						{
							OFFSET 0.000000 0.000000 0.000000
						}
					}
				}
			}
		}
	}
	JOINT RHipJoint
	{
		OFFSET 0.000000 0.000000 0.000000
		CHANNELS 3 Zrotation Yrotation Xrotation
		JOINT RightUpLeg
		{
			OFFSET -1.800000 -1.400000 0.085000
			CHANNELS 3 Zrotation Yrotation Xrotation
			JOINT RightLeg
			{
				OFFSET -2.215000 -6.000000 0.000000
				CHANNELS 3 Zrotation Yrotation Xrotation
				JOINT RightFoot
				{
					OFFSET -2.500000 -6.900000 0.000000
					CHANNELS 3 Zrotation Yrotation Xrotation
					JOINT RightToeBase
					{
						OFFSET -0.200000 -0.500000 1.950000
						CHANNELS 3 Zrotation Yrotation Xrotation
						End Site
						{
							OFFSET 0.000000 0.000000 0.000000
						}
					}
				}
			}
		}
	}
	JOINT LowerBack
	{
		OFFSET 0.000000 0.000000 0.000000
		CHANNELS 3 Zrotation Yrotation Xrotation
		JOINT Spine
		{
			OFFSET -0.087000 1.940000 -0.288900
			CHANNELS 3 Zrotation Yrotation Xrotation
			JOINT Spine1
			{
				OFFSET 0.000000 1.950000 0.060000
				CHANNELS 3 Zrotation Yrotation Xrotation
				JOINT Neck
				{
					OFFSET 0.000000 0.000000 0.000000
					CHANNELS 3 Zrotation Yrotation Xrotation
					JOINT Neck1
					{
						OFFSET 0.000000 1.600000 0.340000
						CHANNELS 3 Zrotation Yrotation Xrotation
						JOINT Head
						{
							OFFSET 0.000000 1.667000 -0.240000
							CHANNELS 3 Zrotation Yrotation Xrotation
							End Site
							{
								OFFSET 0.000000 0.000000 0.000000
							}
						}
					}
				}
				JOINT LeftShoulder
				{
					OFFSET 0.000000 0.000000 0.000000
					CHANNELS 3 Zrotation Yrotation Xrotation
					JOINT LeftArm
					{
						OFFSET 2.700000 1.550000 -0.730000
						CHANNELS 3 Zrotation Yrotation Xrotation
						JOINT LeftForeArm
						{
							OFFSET 5.450000 0.000000 0.000000
							CHANNELS 3 Zrotation Yrotation Xrotation
							JOINT LeftHand
							{
								OFFSET 3.450000 0.000000 0.000000
								CHANNELS 3 Zrotation Yrotation Xrotation
								JOINT LeftHandIndex1
								{
									OFFSET 0.750000 0.000000 0.000000
									CHANNELS 3 Zrotation Yrotation Xrotation
									End Site
									{
										OFFSET 0.000000 0.000000 0.000000
									}
								}
							}
						}
					}
				}
				JOINT RightShoulder
				{
					OFFSET 0.000000 0.000000 0.000000
					CHANNELS 3 Zrotation Yrotation Xrotation
					JOINT RightArm
					{
						OFFSET -2.700000 1.550000 -0.730000
						CHANNELS 3 Zrotation Yrotation Xrotation
						JOINT RightForeArm
						{
							OFFSET -5.450000 0.000000 0.000000
							CHANNELS 3 Zrotation Yrotation Xrotation
							JOINT RightHand
							{
								OFFSET -3.450000 0.000000 0.000000
								CHANNELS 3 Zrotation Yrotation Xrotation
								JOINT RightHandIndex1
								{
									OFFSET -0.750000 0.000000 0.000000
									CHANNELS 3 Zrotation Yrotation Xrotation
									End Site
									{
										OFFSET 0.000000 0.000000 0.000000
									}
								}
							}
						}
					}
				}
			}
		}
	}
}
MOTION
Frames: 10
Frame Time: 0.016667
-1.197710 18.729080 -3.087120 -6.482777 16.318142 -13.155394 -15.486515 15.043488 2.607845 7.784392 -0.720144 -7.588908 1.581968 5.240538 22.854161 -0.452479 4.885916 2.764132 -0.068060 -0.264830 -0.084360 17.684535 -10.309564 3.278163 -4.280597 3.981697 -27.100857 7.437617 -5.269854 18.529597 -0.142658 -2.452921 3.318500 -0.234380 0.277790 0.338020 -2.691589 -4.541448 -7.830568 4.267533 -5.035956 24.471782 0.773428 -4.150065 13.832634 2.788520 0.932639 -19.261009 -4.830205 3.071146 62.939114 -0.169660 0.346100 -7.513250 15.351890 -25.478578 4.371615 30.140498 -14.712935 -3.379866 8.192857 5.048083 -1.087979 -4.159937 1.965931 0.816030 -0.001990 0.251320 0.010670 -20.509247 25.263508 8.873199 -29.304503 13.311686 -5.225797 -11.552453 2.835176 0.316580 2.540063 -0.672185 -0.228110 0.246330 0.364920 -0.062470 
-1.222120 18.652390 -3.102470 -6.257540 16.086257 -12.251100 -15.503881 14.994560 2.604518 7.933531 -0.745971 -7.884576 1.101228 5.340326 22.594833 -0.493436 4.857580 2.743116 -0.031830 -0.224260 -0.049150 17.685556 -10.218688 3.324719 -3.569197 3.719601 -26.812607 5.857385 -3.847833 11.673266 -0.097249 -1.733147 3.569944 -0.217770 0.226670 0.347280 -2.652730 -4.573232 -7.869849 4.026729 -4.628223 24.134606 1.177921 -3.773063 13.321101 2.700925 0.733025 -18.913137 -5.535009 2.899792 62.702947 0.043300 -0.011960 -11.459760 15.685650 -24.621909 3.968417 30.625721 -15.229106 -3.517186 8.674346 3.607143 -1.070871 -4.084232 2.014030 0.878270 -0.050910 0.303070 -0.005480 -20.590529 24.761350 8.954762 -28.708062 13.398068 -5.586719 -13.092286 1.348131 0.252141 2.585145 -0.641667 -0.220340 0.255410 0.364310 -0.079830 
-1.268120 18.550090 -3.151160 -6.126529 16.295088 -11.085908 -15.468218 14.753461 2.535443 8.151196 -0.860050 -8.416333 0.089698 5.592763 22.303273 -0.512554 4.848298 2.749718 -0.029380 -0.240660 -0.032110 17.764939 -9.999296 3.579247 -3.319267 3.749890 -26.821210 5.436041 -2.526009 2.136022 -0.086979 -1.393401 3.692633 -0.212290 0.207460 0.306900 -2.806805 -4.383837 -8.026287 5.278346 -4.243357 23.986631 0.691968 -2.959313 12.494975 2.372513 0.372081 -18.796879 -6.710195 2.996435 61.341386 1.675530 -0.696460 -12.352330 15.933397 -24.290476 3.516769 31.278064 -16.053312 -3.973812 9.581704 0.800559 -0.999503 -3.969285 2.146449 0.910230 -0.093060 0.296800 -0.009490 -20.241781 24.713619 9.414653 -28.040973 12.055440 -5.952410 -14.791903 0.361626 0.183953 2.661570 -0.648428 -0.255250 0.268370 0.355070 -0.100160 
-1.307590 18.459080 -3.212660 -6.633234 15.791670 -10.237708 -15.389940 14.394965 2.398827 9.334799 -0.728497 -8.224375 -1.422177 5.885495 20.415606 -0.568236 4.876451 2.834477 -0.063180 -0.292890 -0.079430 17.913055 -9.716095 3.920426 -2.868081 4.284526 -26.364876 6.001698 -1.565782 -6.192808 -0.132844 -1.602775 3.676885 -0.193180 0.321520 0.245370 -3.091339 -4.065128 -8.205634 7.775735 -4.237275 24.069000 -0.594671 -2.278302 11.910350 2.096709 -0.822839 -17.841074 -9.424554 2.922355 57.580820 2.433020 -2.350570 -12.751310 15.271627 -23.352875 2.904286 31.153476 -17.047595 -4.995442 13.597501 -4.109641 -1.181450 -3.949670 2.295853 0.922130 -0.064260 0.227970 0.044820 -19.069462 24.644470 9.877203 -26.818129 10.469655 -6.664365 -18.641032 2.732059 -0.247287 2.611263 -0.748676 -0.359230 0.394040 0.365850 -0.088990 
-1.369470 18.383420 -3.276640 -6.375381 14.628331 -8.850820 -15.358214 14.001025 2.287270 9.763520 -0.779373 -8.794647 -2.999093 6.234584 19.390337 -0.782619 5.158202 2.804541 -0.187250 -0.461690 -0.210000 18.036381 -9.419003 4.168628 -3.152815 5.095761 -27.676172 7.625711 -0.939345 -10.561266 -0.068864 -1.885392 3.609196 -0.151030 0.584860 0.216430 -3.250242 -3.797143 -8.272685 8.353066 -3.618811 23.328030 -0.494895 -1.718742 12.583262 1.250962 -2.631528 -15.002773 -12.033812 2.936173 51.169607 3.313030 -4.044010 -13.495810 15.374947 -20.309166 1.873245 28.593397 -19.099695 -4.885835 18.714431 -9.757283 -2.079353 -4.135516 2.377282 0.901470 0.084670 0.037780 0.034380 -17.484126 22.724940 8.735875 -26.928889 11.160053 -7.529135 -22.595737 7.915220 -1.144670 2.338633 -0.835208 -0.549630 0.589640 0.540770 -0.096640 
-1.473160 18.364990 -3.324870 -5.037040 15.434353 -8.255733 -15.423938 13.857438 2.257444 8.496162 -0.607292 -8.209745 -2.740925 5.777626 17.235925 -0.904005 4.988921 2.866722 -0.146270 -0.361850 -0.216980 18.015131 -9.301974 4.211168 -4.644616 5.008718 -28.689765 9.325822 -0.844676 -10.741312 -0.052502 -2.078340 3.522998 -0.041060 0.658230 0.281420 -3.126382 -3.753892 -8.227029 5.909015 -2.738052 23.836725 -0.229900 -1.286323 13.581322 0.871927 -2.156127 -11.925146 -9.563564 1.844987 46.446495 0.679110 -3.124080 -15.842860 13.931305 -17.886707 0.713476 27.801556 -21.131189 -5.795077 26.195353 -17.015386 -3.993505 -4.258411 2.515939 0.807130 0.206410 -0.007640 0.024290 -15.371491 20.038936 7.349646 -23.465070 12.598326 -8.443249 -30.909162 14.088473 -3.469707 2.119810 -1.047162 -0.537170 0.617730 0.579570 -0.083750 
-1.584780 18.393260 -3.369490 -4.912496 16.200270 -7.664214 -15.431022 13.859181 2.270745 8.141112 -0.582056 -8.672377 -1.877995 5.274720 15.409853 -1.067642 4.932107 2.955714 -0.259550 -0.504400 -0.353690 18.022967 -9.326241 4.153326 -3.820859 5.449315 -30.292409 9.983797 -1.232289 -7.774309 0.088409 -1.985182 3.577163 -0.035850 0.894670 0.306360 -3.136731 -3.782924 -8.145085 4.993038 -2.688987 24.324175 0.182867 -1.390406 13.711615 -0.006207 -2.526044 -10.561323 -9.321001 3.326922 43.587909 2.067230 -2.459150 -13.390770 12.439692 -16.844202 0.901855 22.291251 -20.866578 -5.763333 38.339026 -27.271804 -8.978583 -4.401425 2.505801 0.767030 0.363060 -0.152040 0.039240 -12.172439 18.920520 6.174815 -19.598088 13.944437 -9.403370 -39.542692 23.641414 -7.363159 1.844497 -1.062095 -0.658510 0.717910 0.709540 -0.067040 
-1.720500 18.442300 -3.419850 -4.668679 17.972649 -7.011450 -15.417592 13.855436 2.335250 7.556482 -0.686100 -9.644973 -0.913389 4.688001 13.582487 -1.129947 4.626199 3.094390 -0.210760 -0.458920 -0.303160 18.028382 -9.463011 4.072085 -3.293064 5.799136 -32.316144 9.995165 -1.900790 -2.640604 0.135737 -1.766240 3.637685 -0.002870 0.897480 0.325070 -3.206682 -3.641710 -8.068539 4.476347 -3.044209 25.854940 -0.727049 -1.649347 13.805044 0.038469 -2.449004 -9.803917 -8.297875 3.722249 41.194506 1.214580 -1.162210 -14.437050 9.564297 -16.215453 1.274062 17.342758 -19.209400 -6.186626 53.791525 -36.412691 -17.344650 -4.319852 2.391904 0.756320 0.379730 -0.148020 0.064540 -9.376356 18.085226 5.562084 -12.401505 15.251024 -10.472693 -52.746756 31.060481 -14.381158 1.696285 -1.076385 -0.655800 0.721450 0.671890 -0.077580 
-1.837970 18.496070 -3.453430 -4.693573 20.961549 -6.842584 -15.420329 13.871205 2.374612 6.606467 -0.701361 -10.755564 0.587811 4.074117 12.245825 -1.152259 4.308432 3.226540 -0.228140 -0.426270 -0.379140 18.019776 -9.575821 3.991414 -3.325625 5.962015 -33.140973 10.652590 -2.671276 2.251087 0.167429 -1.812530 3.635454 0.009660 0.950140 0.336580 -3.263860 -3.572340 -7.975109 4.964319 -3.232893 26.820100 -1.308888 -1.468287 15.514937 0.199441 -2.510276 -9.800666 -8.163341 3.210260 39.365658 1.241480 -1.595580 -14.626570 8.405866 -14.960554 2.112985 6.279554 -21.608279 -5.833875 75.076503 -39.816348 -31.453687 -4.291598 2.223667 0.692620 0.423920 -0.171360 0.093080 -8.601953 16.715846 5.730229 -3.027735 14.429564 -11.037086 -67.209535 37.711369 -24.691039 1.533131 -1.012460 -0.632860 0.733450 0.681550 -0.030110 
-1.946790 18.527630 -3.495540 -4.374907 22.180595 -5.529444 -15.469660 13.924461 2.404685 5.194722 -1.009323 -13.258875 1.815196 3.705008 13.089105 -1.122821 4.034981 3.326383 -0.150830 -0.286970 -0.420420 17.997436 -9.461792 4.027667 -2.734076 6.735410 -35.683378 11.058690 -3.543187 8.445509 0.159019 -1.950015 3.581763 0.075730 0.974980 0.356350 -3.159471 -3.907629 -7.872546 3.726181 -3.423487 26.963092 -0.055989 -1.923467 16.802799 -0.490157 -4.093310 -9.797491 -10.370098 4.337768 35.136520 2.497810 -1.440720 -15.345670 6.811430 -12.531516 3.671879 -7.649537 -23.825130 -3.240648 95.658296 -41.817175 -50.514048 -4.246982 2.221770 0.597430 0.440780 -0.180970 0.175850 -5.679783 15.577147 5.015672 5.148538 17.701266 -10.198964 -85.353213 42.819907 -40.856160 1.425610 -0.914924 -0.563880 0.710100 0.615260 0.040180 
